<svg width="32" height="32" viewBox="0 0 32 32" fill="none" xmlns="http://www.w3.org/2000/svg">
<path d="M23.7295 5.65252C23.2895 5.32737 22.6667 5.64155 22.6667 6.18871V7.86672C22.6667 7.94036 22.607 8.00005 22.5334 8.00005H21.3334C18.6228 8.00005 16.2269 9.34843 14.7798 11.411C14.7251 11.489 14.6083 11.489 14.5536 11.411C13.1066 9.34843 10.7106 8.00005 8.00004 8.00005H6.00004C5.63185 8.00005 5.33337 8.29853 5.33337 8.66672V10.3998C5.33337 10.768 5.63185 11.0665 6.00004 11.0665H8.00004C10.724 11.0665 12.9336 13.2748 12.9336 16.0001C12.9336 18.7253 10.724 20.9336 8.00004 20.9336H6.00004C5.63185 20.9336 5.33337 21.2321 5.33337 21.6003V23.3334C5.33337 23.7016 5.63185 24.0001 6.00004 24.0001H8.00004C10.7106 24.0001 13.1066 22.6517 14.5536 20.5891C14.6083 20.5111 14.7251 20.5111 14.7798 20.5891C16.2269 22.6517 18.6228 24.0001 21.3334 24.0001H22.5334C22.607 24.0001 22.6667 24.0597 22.6667 24.1334V25.8113C22.6667 26.3585 23.2895 26.6727 23.7296 26.3475L28.2568 23.0022C28.6175 22.7357 28.6175 22.1963 28.2568 21.9298L23.7295 18.5848C23.2895 18.2597 22.6667 18.5738 22.6667 19.121V20.8003C22.6667 20.874 22.607 20.9336 22.5334 20.9336H21.3334C18.6094 20.9336 16.3998 18.7253 16.3998 16.0001C16.3998 13.2748 18.6094 11.0665 21.3334 11.0665H22.5334C22.607 11.0665 22.6667 11.1262 22.6667 11.1998V12.879C22.6667 13.4262 23.2895 13.7404 23.7296 13.4152L28.2568 10.0699C28.6175 9.8034 28.6175 9.26401 28.2568 8.99753L23.7295 5.65252Z" fill="#F5F5F5"/>
</svg>
