<svg width="19" height="16" viewBox="0 0 19 16" fill="none" xmlns="http://www.w3.org/2000/svg">
<path fill-rule="evenodd" clip-rule="evenodd" d="M7.91583 1.13895C8.99143 0.0189561 10.7208 0.884958 10.7208 2.30786V13.692C10.7208 15.1264 8.96903 15.9863 7.90116 14.8451C7.89625 14.8398 7.89141 14.8345 7.88664 14.8291L5.45641 12.0909H2.53895C1.60496 12.0909 0.902588 11.3122 0.902588 10.4209V5.57813C0.902588 4.68721 1.60546 3.90904 2.53895 3.90904H5.46208L7.89339 1.16328C7.90071 1.15502 7.90819 1.14691 7.91583 1.13895Z" fill="black"/>
<path fill-rule="evenodd" clip-rule="evenodd" d="M12.5553 5.03014C12.8286 4.75677 13.2719 4.75677 13.5452 5.03014L15.5251 7.01005L17.505 5.03016C17.7784 4.75679 18.2216 4.7568 18.495 5.03016C18.7683 5.30353 18.7683 5.74674 18.495 6.02011L16.5151 8L18.495 9.97989C18.7683 10.2533 18.7683 10.6965 18.495 10.9698C18.2216 11.2432 17.7784 11.2432 17.505 10.9698L15.5251 8.98995L13.5452 10.9699C13.2719 11.2432 12.8286 11.2432 12.5553 10.9699C12.2819 10.6965 12.2819 10.2533 12.5553 9.97991L14.5352 8L12.5553 6.02009C12.2819 5.74672 12.2819 5.30351 12.5553 5.03014Z" fill="black"/>
</svg>
