<svg width="18" height="18" viewBox="0 0 18 18" fill="none" xmlns="http://www.w3.org/2000/svg">
<path d="M0.252686 8.37501C0.252686 8.99728 0.75542 9.50001 1.37769 9.50001C1.99995 9.50001 2.50269 8.99728 2.50269 8.37501C2.50269 6.51173 4.0144 5.00001 5.87769 5.00001H11.5027V6.12501C11.5027 6.57853 11.7769 6.98986 12.1988 7.16564C12.6207 7.34142 13.1023 7.24298 13.4257 6.92306L15.6757 4.67306C16.1152 4.23361 16.1152 3.51993 15.6757 3.08048L13.4257 0.830481C13.1023 0.507043 12.6207 0.412122 12.1988 0.587903C11.7769 0.763684 11.5027 1.1715 11.5027 1.62501V2.75001H5.87769C2.76987 2.75001 0.252686 5.2672 0.252686 8.37501ZM17.2527 9.62501C17.2527 9.00275 16.75 8.50001 16.1277 8.50001C15.5054 8.50001 15.0027 9.00275 15.0027 9.62501C15.0027 11.4883 13.491 13 11.6277 13H6.00269V11.875C6.00269 11.4215 5.72847 11.0102 5.30659 10.8344C4.88472 10.6586 4.40308 10.757 4.07964 11.077L1.82964 13.327C1.39019 13.7664 1.39019 14.4801 1.82964 14.9195L4.07964 17.1695C4.40308 17.493 4.88472 17.5879 5.30659 17.4121C5.72847 17.2363 6.00269 16.8285 6.00269 16.3715V15.2465H11.6277C14.7355 15.2465 17.2527 12.7293 17.2527 9.6215V9.62501Z" fill="white"/>
</svg>
