<svg width="17" height="16" viewBox="0 0 17 16" fill="none" xmlns="http://www.w3.org/2000/svg">
<path d="M12.2501 5.62422V1.12422C12.2501 0.670703 12.5243 0.262891 12.9462 0.0871094C13.368 -0.0886719 13.8497 0.00624999 14.1731 0.329687L16.4231 2.57969C16.8626 3.01914 16.8626 3.73281 16.4231 4.17227L14.1731 6.42227C13.8497 6.74219 13.368 6.84063 12.9462 6.66484C12.5243 6.48906 12.2501 6.07773 12.2501 5.62422Z" fill="white"/>
<path d="M12.2501 14.873V10.373C12.2501 9.91951 12.5243 9.5117 12.9462 9.33592C13.368 9.16014 13.8497 9.25506 14.1731 9.5785L16.4231 11.8285C16.8626 12.268 16.8626 12.9816 16.4231 13.4211L14.1731 15.6711C13.8497 15.991 13.368 16.0894 12.9462 15.9137C12.5243 15.7379 12.2501 15.3265 12.2501 14.873Z" fill="white"/>
<path d="M14.1227 11.5681L13.0216 11.5681C12.0053 11.5681 11.0582 11.0537 10.505 10.2012L9.67116 8.9163L8.47905 10.7533L8.8273 11.2899C9.74929 12.7107 11.3279 13.5681 13.0216 13.5681L14.1227 13.5681C14.675 13.5681 15.1227 13.1204 15.1227 12.5681C15.1227 12.0158 14.675 11.5681 14.1227 11.5681Z" fill="white"/>
<path d="M6.09483 7.07929L7.28694 5.24227L6.28689 3.70122C5.36491 2.28046 3.78635 1.42303 2.09264 1.42303H1.89948C1.3472 1.42303 0.899485 1.87075 0.899485 2.42303C0.899485 2.97532 1.3472 3.42303 1.89948 3.42303H2.09264C3.10887 3.42303 4.056 3.93749 4.6092 4.78995L6.09483 7.07929Z" fill="white"/>
<path fill-rule="evenodd" clip-rule="evenodd" d="M13.0215 4.42746L14.1226 4.42746C14.6749 4.42747 15.1226 3.97975 15.1226 3.42747C15.1226 2.87518 14.6749 2.42747 14.1226 2.42746L13.0215 2.42746C11.3278 2.42745 9.74922 3.28488 8.82723 4.70565L4.60912 11.2056C4.05593 12.0581 3.1088 12.5726 2.09257 12.5726H1.89941C1.34713 12.5726 0.899414 13.0203 0.899414 13.5726C0.899414 14.1248 1.34713 14.5726 1.89941 14.5726H2.09257C3.78628 14.5726 5.36484 13.7151 6.28682 12.2944L10.5049 5.79437C11.0581 4.94191 12.0053 4.42746 13.0215 4.42746Z" fill="white"/>
</svg>
