<svg width="20" height="16" viewBox="0 0 20 16" fill="none" xmlns="http://www.w3.org/2000/svg">
<path fill-rule="evenodd" clip-rule="evenodd" d="M7.91583 1.13895C8.99143 0.0189561 10.7208 0.884958 10.7208 2.30786V13.692C10.7208 15.1264 8.96903 15.9863 7.90116 14.8451C7.89625 14.8398 7.89141 14.8345 7.88664 14.8291L5.45641 12.0909H2.53895C1.60496 12.0909 0.902588 11.3122 0.902588 10.4209V5.57813C0.902588 4.68721 1.60546 3.90904 2.53895 3.90904H5.46208L7.89339 1.16328C7.90071 1.15502 7.90819 1.14691 7.91583 1.13895Z" fill="black"/>
<path fill-rule="evenodd" clip-rule="evenodd" d="M15.5168 1.97627C15.7837 1.69666 16.2268 1.68643 16.5064 1.95342C19.9486 5.24024 19.9747 10.7764 16.5033 14.0496C16.222 14.3149 15.779 14.3018 15.5137 14.0206C15.2485 13.7393 15.2615 13.2963 15.5428 13.031C18.4222 10.316 18.4102 5.707 15.5396 2.96595C15.26 2.69897 15.2498 2.25587 15.5168 1.97627ZM13.6009 3.62009C13.8679 3.34048 14.311 3.33025 14.5906 3.59724C17.0963 5.98983 17.1167 10.0209 14.5874 12.4058C14.3061 12.671 13.8631 12.658 13.5979 12.3767C13.3327 12.0955 13.3457 11.6524 13.627 11.3872C15.5642 9.56056 15.5579 6.45658 13.6238 4.60977C13.3442 4.34279 13.3339 3.89969 13.6009 3.62009ZM12.0174 5.49168C12.3267 5.25978 12.7654 5.32254 12.9973 5.63186C13.487 6.28497 13.6938 7.17597 13.6938 8.00001C13.6938 8.82405 13.487 9.71506 12.9973 10.3682C12.7654 10.6775 12.3267 10.7402 12.0174 10.5083C11.708 10.2764 11.6453 9.83769 11.8772 9.52837C12.1295 9.19176 12.2938 8.62937 12.2938 8.00001C12.2938 7.37066 12.1295 6.80826 11.8772 6.47166C11.6453 6.16234 11.708 5.72359 12.0174 5.49168Z" fill="black"/>
</svg>
